<?xml version="1.0" encoding="utf-8"?>
<!-- Generator: Adobe Illustrator 19.0.0, SVG Export Plug-In . SVG Version: 6.00 Build 0)  -->
<svg version="1.1" id="Layer_1" xmlns="http://www.w3.org/2000/svg" xmlns:xlink="http://www.w3.org/1999/xlink" x="0px" y="0px"
	 viewBox="0 0 1024 1024" style="enable-background:new 0 0 1024 1024;" xml:space="preserve">
<style type="text/css">
	.st0{fill:#4A0E17;}
</style>
<g id="XMLID_33_">
	<path id="XMLID_44_" class="st0" d="M803.8,89.1c-68.4-47.6-149-78.9-236.2-88.3c-22.2,42.7-127.3,247.4-165.9,372.7
		c-16,51.9-27.2,101.9-34.3,152.7c30.2,46,67.9,87.2,121.3,132.8c51.8,44.2,99.8,76.5,187.2,108.2c-0.3-10.8-0.5-21.6-0.7-32.5
		c-1.5-144.4,12.6-270.4,44.3-396.5C739.5,259,766.5,178.9,803.8,89.1z"/>
	<path id="XMLID_43_" class="st0" d="M440.2,742.3c-29.1-20.1-56.8-44.5-82.7-72.9c-0.1,4.1-0.1,8.3-0.1,12.5
		c-0.5,51.7,10.7,187,123.7,327.6c3.3,4.1,6.7,8.2,10.2,12.1c6.8,0.3,13.7,0.4,20.6,0.4c66.5,0,130.1-12.7,188.4-35.8
		c-9.3-44.9-16-92.4-20.1-143C590.7,824.4,510.1,790.4,440.2,742.3z"/>
	<path id="XMLID_42_" class="st0" d="M853.9,860.8c-29.1,0-57.9-1.4-86.1-4.1c1.9,16.7,4.1,34.1,6.6,52.5
		c1.6,11.6,3.8,23.8,6.6,36.6c38.5-23.8,73.6-52.6,104.4-85.4C875.2,860.6,864.7,860.8,853.9,860.8z"/>
	<path id="XMLID_41_" class="st0" d="M341.4,960c-28.9-63.8-51.3-140.8-68.5-235.4c-8.8-48.3-13.3-121.2-12.1-195.9
		c-39.5-75.5-68.4-160.3-86.2-252.2c-8.7-45-14.4-90.5-17.2-136.3C60.2,233.5-0.2,364.6-0.2,509.9c0,230.3,152,425.1,361.2,489.5
		C354.1,986.8,347.6,973.7,341.4,960z"/>
	<path id="XMLID_40_" class="st0" d="M280.7,310.8c3.7-20.8,7.9-40.6,12.6-59.5c20.4-82.2,54.4-177.4,75.5-233.3
		C328,29.9,289.2,46.7,253.3,67.8C256.1,134.6,263.1,229.9,280.7,310.8z"/>
	<path id="XMLID_34_" class="st0" d="M789.9,402.1c-32.1,138.1-40.3,243.5-29.1,383c52.9,6.3,119.6,9.8,175.3,11.9
		c55.6-81.9,88-180.7,88-287.1c0-141.3-57.2-269.2-149.8-361.9C843.8,222,810.5,313.6,789.9,402.1z"/>
</g>
</svg>
